<?xml version="1.0" standalone="no"?><!DOCTYPE svg PUBLIC "-//W3C//DTD SVG 1.1//EN" "http://www.w3.org/Graphics/SVG/1.1/DTD/svg11.dtd"><svg t="1551623671204" class="icon" style="" viewBox="0 0 1024 1024" version="1.1" xmlns="http://www.w3.org/2000/svg" p-id="1796" xmlns:xlink="http://www.w3.org/1999/xlink" width="260" height="260"><defs><style type="text/css"></style></defs><path d="M172.7 684.7c-5.4 0-10.7-2.4-14.2-6.9-8.7-11.2-16.9-23-24.3-35.1-5.2-8.5-2.5-19.6 6-24.7 8.5-5.2 19.6-2.5 24.7 6 6.7 10.9 14 21.6 21.9 31.7 6.1 7.8 4.7 19.1-3.1 25.3-3.3 2.5-7.2 3.7-11 3.7z" fill="#844415" p-id="1797"></path><path d="M450.3 820.4c-86.4 0-169.7-30-236.2-85.3-7.6-6.4-8.7-17.7-2.3-25.3 6.4-7.6 17.7-8.7 25.3-2.3 133.4 111 326.6 102 449.5-20.9 63.1-63.1 97.8-147 97.8-236.2 0-89.2-34.7-173.1-97.8-236.2-63.1-63.1-147-97.8-236.2-97.8-89.2 0-173.1 34.7-236.2 97.8-73.5 73.5-108.2 175-95.2 278.3 2.8 21.8 7.7 43.4 14.6 64.1 3.2 9.4-1.9 19.6-11.4 22.8-9.4 3.2-19.6-1.9-22.8-11.4-7.7-23-13.1-46.9-16.2-71-6.9-54.8-1.4-111.4 16-163.7 18.2-54.8 48.3-103.5 89.5-144.6 35.3-35.3 76.5-62.7 122.4-81.3 44.3-18 91.2-27.1 139.2-27.1 48 0 94.9 9.1 139.2 27.1 45.9 18.6 87.1 46 122.4 81.3 35.3 35.3 62.7 76.5 81.3 122.4 18 44.3 27.1 91.2 27.1 139.2 0 48-9.1 94.9-27.1 139.2-18.6 45.9-46 87.1-81.3 122.4-65.7 65.7-152.9 104-245.6 108-5.2 0.4-10.6 0.5-16 0.5z" fill="#844415" p-id="1798"></path><path d="M511 708.1c-64.1 0-125.3-22.8-174.1-65.3-53.6-46.6-85.9-111.3-90.9-182.2-4-57.7 14.6-113.5 52.6-157.1 37.9-43.6 90.6-69.9 148.2-73.9 97.2-6.8 181.8 66.8 188.6 164 5.6 79.8-54.8 149.2-134.5 154.8-31.9 2.2-62.7-8.1-86.8-29-24.1-21-38.6-50-40.8-81.9-1.9-26.5 6.7-52 24.1-72.1s41.5-32.1 68-33.9c45.7-3.2 85.4 31.4 88.6 77 0.7 9.9-6.8 18.5-16.7 19.2-9.9 0.7-18.5-6.8-19.2-16.7-1.8-25.9-24.3-45.4-50.2-43.6-16.9 1.2-32.3 8.9-43.3 21.6-11.1 12.8-16.5 29.1-15.4 45.9 1.6 22.3 11.7 42.6 28.6 57.3s38.4 21.9 60.7 20.3c60-4.2 105.3-56.4 101.1-116.3-5.4-77.4-72.8-136-150.2-130.6-48.1 3.4-92 25.2-123.6 61.6-31.6 36.4-47.2 82.9-43.8 131 4.3 61.3 32.2 117.2 78.6 157.6 46.4 40.3 105.7 60.1 167 55.9 120-8.4 221.2-87.8 257.8-202.3 3-9.5 13.2-14.7 22.6-11.7 9.5 3 14.7 13.2 11.7 22.6-19.8 61.8-57.1 115.9-108 156.5-52.1 41.6-114.9 66.1-181.6 70.7-6.5 0.4-12.8 0.6-19.1 0.6zM925.6 943.6c-4.6 0-9.2-1.8-12.7-5.3L686.6 712c-7-7-7-18.4 0-25.5 7-7 18.4-7 25.5 0l226.3 226.3c7 7 7 18.4 0 25.5-3.6 3.5-8.2 5.3-12.8 5.3z" fill="#844415" p-id="1799"></path></svg>